<?xml version="1.0" encoding="UTF-8"?>
<svg width="191px" height="173px" viewBox="0 0 191 173" version="1.1" xmlns="http://www.w3.org/2000/svg" xmlns:xlink="http://www.w3.org/1999/xlink">
    <!-- Generator: Sketch 53.2 (72643) - https://sketchapp.com -->
    <title>Shape@2x</title>
    <desc>Created with Sketch.</desc>
    <g id="Page-1" stroke="none" stroke-width="1" fill="none" fill-rule="evenodd" opacity="0.334823">
        <g id="GitHub-Media" transform="translate(-172.000000, -154.000000)" fill="#1453FF" fill-rule="nonzero">
            <g id="Group-Copy" transform="translate(85.000000, 154.000000)">
                <g id="shape" transform="translate(87.000000, 0.000000)">
                    <path d="M51.5699703,55.6316067 C49.9179606,56.6503289 47.9003929,54.6995664 49.6026679,53.6783048 C59.1144705,47.9092284 68.6644917,42.1249996 78.2335586,36.3256185 C79.9150064,35.3168851 81.903136,37.2654044 80.2390796,38.2637681 C70.6890584,44.0783016 61.1199915,49.8776827 51.5699703,55.6316067 L51.5699703,55.6316067 Z M170.335668,38.4651508 C169.867077,39.7700327 167.878693,39.0590985 168.347284,37.7542589 L177.447717,12.4853032 C178.307869,10.0146195 179.643144,8.4941337 181.240392,7.69071921 C184.398366,6.102217 192.289676,7.52725979 190.784686,12.445306 L167.061681,72.3079384 C166.470756,73.7990506 165.744518,75.992505 164.968779,77.2768593 C164.725936,77.7412923 164.22884,78.3089985 163.819803,78.6180984 C163.167415,80.9660394 162.001218,84.7672539 158.917094,85.9132899 C158.320739,86.1008323 157.937536,85.9747036 157.632975,85.4007756 C156.428644,82.7842398 157.357852,79.5231354 158.404091,76.7757305 C157.889646,74.8624257 159.463352,71.8721171 160.181573,69.9321475 L182.315475,10.1459119 C182.412612,9.8835811 182.505465,9.63509061 182.635985,9.3843569 C182.276111,9.51564927 181.940203,9.69417641 181.629279,9.91782208 C180.743932,10.554899 179.987196,11.6072273 179.440216,13.1837938 L170.335668,38.4651508 L170.335668,38.4651508 Z M173.733431,39.425422 C173.348446,40.429288 176.780907,42.0877112 177.420994,40.4252248 L188.782007,11.7662002 C189.261373,9.87566631 185.266874,8.27158848 184.36931,10.6966457 L173.733431,39.425422 L173.733431,39.425422 Z M176.32589,43.1876975 C175.096999,43.2001834 173.74586,42.7441731 172.794552,41.9613286 L162.182682,70.6252629 C161.91108,71.3588833 161.144757,73.1691266 160.710737,74.4366778 C159.854827,76.9363118 162.594518,77.512229 163.573482,75.4045252 C164.102265,74.2664887 164.591895,72.7876507 165.022862,71.7005313 L176.32589,43.1876975 L176.32589,43.1876975 Z M161.60075,78.6992779 C161.082954,78.6353671 160.572582,78.4858326 160.106366,78.2512671 C159.458728,79.97267 158.8516,81.7933675 159.154592,83.3851711 C160.40028,82.3420697 161.132202,80.2929015 161.60075,78.6992779 L161.60075,78.6992779 Z M9.03332808,75.7482471 L4.3037259,78.596682 L97.8556812,169.815123 L186.686221,116.197005 L181.573288,111.247257 C153.546089,128.165095 125.518212,145.081833 97.4907171,161.999249 C68.0045532,133.24931 38.5191951,104.498482 9.03332808,75.7482471 Z M183.818216,109.892135 L190.817433,116.667956 C159.708994,135.446108 128.599622,154.22261 97.4907171,173 C65.0535783,141.372803 32.6174575,109.744505 0.180530824,78.1170966 L7.1549337,73.9167143 L0.180530824,67.1163453 L6.79535668,63.1325403 C4.52934701,60.9001045 2.26422812,58.6672454 0,56.4341324 L93.494479,0 L158.473105,63.2516008 L157.320439,66.2357298 L92.9405853,3.57350568 L4.5075866,56.858145 C35.5439148,87.3413377 66.6684299,117.729299 97.9447589,147.967387 L186.377758,94.5313514 L169.442091,78.0657563 L170.504661,75.007516 L191,94.9401692 L184.062925,99.1282349 L190.817433,105.667204 L183.818216,109.892135 L183.818216,109.892135 Z M8.66191645,64.9711837 L4.3037259,67.5959306 L97.8556812,158.814372 L186.686221,105.196253 L181.818124,100.483484 L97.4481719,151.419716 C67.6560048,122.8464 38.0818236,93.9458687 8.66191645,64.9711837 L8.66191645,64.9711837 Z M143.421899,90.609595 C143.516109,91.244598 142.289551,91.3172702 142.199498,90.7458394 C141.939858,89.4423542 141.065369,85.9415207 141.435466,85.0221778 C141.626474,84.507378 142.00849,84.2802194 142.696085,84.4316585 C143.822961,84.6739272 145.2555,85.9307278 146.554295,87.5054744 C146.726173,87.2934681 146.917181,87.1420713 147.146365,87.0511994 C147.914469,86.7399831 148.835109,87.0455278 149.990065,88.5188635 C150.88186,89.656773 150.715582,89.5600603 150.667395,87.8767499 C150.648901,87.2304884 150.764744,86.6625706 151.061882,86.4152652 C151.405679,86.1426918 151.806784,86.1275394 152.265194,86.46068 C153.411497,87.0879799 152.94999,85.7070821 152.857264,84.8253663 C152.761781,83.7502672 152.666299,82.7508876 153.277499,82.4480517 C153.888699,82.1452158 154.805479,82.5994908 156.371677,84.4619209 C156.772272,84.9559391 155.827285,85.496134 155.359372,84.976763 C155.17689,84.7571806 155.008576,84.5668024 154.873305,84.3877674 C153.899261,83.0985034 153.9424,83.6184246 154.079665,84.7496467 C154.178075,85.904063 154.550716,89.1062509 152.789692,87.9330422 C152.046954,87.4382198 151.883178,87.1235753 151.883178,88.4594391 C151.86409,89.4436663 151.883178,90.4430035 151.25289,90.6852722 C150.737172,90.8821261 150.106884,90.6247051 149.342894,89.5193435 C148.836,88.774253 147.76431,87.2792892 147.260978,88.4291344 C148.502467,90.1099052 149.476596,91.9874877 149.648473,93.3200079 C149.820393,94.6373334 148.903571,95.2430051 147.776696,95.333877 C146.829291,95.3939363 145.805533,95.1022743 145.045361,94.5313514 C144.67361,94.2366419 144.464787,93.9018083 144.402475,93.5093279 C144.10644,91.6446123 146.344114,91.3140535 145.521079,93.4384334 C145.262032,94.1071272 147.074297,94.4165658 147.424203,94.3537977 C150.453014,93.8106401 146.193827,88.6245069 145.275054,87.6225032 C144.548605,86.8302625 141.959285,84.0666894 142.653158,86.8886711 C142.959416,88.1342133 143.271782,89.7767223 143.421899,90.609595 L143.421899,90.609595 Z M137.672781,89.5799107 C137.3205,90.1384747 136.191504,89.7261015 136.564994,89.1710929 C137.644191,87.374055 139.552109,88.7336633 140.174889,90.1250153 C140.403734,90.7057576 139.286784,90.9984354 139.009795,90.4127411 C138.816921,89.9731953 138.134628,88.7743376 137.672781,89.5799107 Z M132.86742,96.8635051 C132.910729,97.4476757 131.789835,97.5745663 131.64502,96.9240722 C131.426652,96.0743541 130.334305,96.6959824 130.591527,97.7853028 C130.682217,98.1694451 130.786098,98.4901845 131.522305,97.9455455 C132.023727,97.5746086 132.532318,97.778954 132.943815,98.1051533 C133.249394,98.332312 133.440402,98.695715 133.669586,99.0893805 C135.492413,101.666173 135.316336,101.027488 134.751668,99.0379132 C134.447871,97.9673852 133.9842,96.0563237 134.286089,95.2274295 C134.507002,94.6208266 135.757907,94.2212779 136.531696,95.4032478 C136.92877,96.0012587 137.352398,96.6942471 137.784595,97.3267953 C139.008862,99.1186271 139.118979,98.9602891 138.341288,96.8026416 C138.046568,96.2544896 137.731615,95.6743399 137.584212,95.1635186 C137.299503,94.1770482 137.844701,93.3268645 138.933697,93.8643506 C139.847125,94.3152396 140.536587,95.5022885 140.599323,95.0842438 C140.618666,94.9550677 140.578326,94.6727171 140.466258,94.1683293 C140.267233,93.2726884 139.932725,92.322279 139.792873,92.0783596 C139.451366,91.536895 140.551221,91.1155912 140.919791,91.6998042 C141.235423,92.2211221 141.849211,94.3043197 141.83131,95.3900847 C141.808235,96.8003561 140.590118,96.6363887 139.716478,95.9092864 C139.226169,95.4341451 138.426209,94.3860071 139.092425,95.7322829 C139.269011,96.0890833 139.526658,96.6048989 139.676733,97.0911293 C140.899006,101.05064 138.731109,100.672507 136.898144,98.0012453 C135.886391,96.5267245 134.852962,94.8083266 135.792987,98.3318041 C137.143702,103.394856 134.594934,102.828927 132.84829,99.9676257 C132.412997,99.2197417 132.442859,98.635952 131.578084,99.1198969 C131.026057,99.4287853 130.541008,99.3641125 130.136086,99.0439657 C129.830507,98.801697 129.658587,98.3171596 129.563104,97.7417503 C129.353008,97.8628846 129.142912,97.9386042 128.932816,97.984019 C128.264309,98.1203057 127.729503,97.9234518 127.4621,97.1360785 C126.684918,95.1117551 131.980843,91.208918 133.237687,91.261909 C135.224629,91.3456703 134.414064,93.1852872 133.414697,92.4965313 C133.131218,92.3011588 132.248585,92.8051657 131.22364,93.3445141 C129.034449,94.4966025 126.426381,98.7816773 130.594497,95.7127287 C131.042939,95.4238601 131.699824,95.2133352 132.205403,95.4809567 C132.56498,95.6712502 132.804175,96.1013999 132.86742,96.8635051 L132.86742,96.8635051 Z M145.312764,103.767951 C144.672338,104.130635 143.979356,103.439805 144.548774,103.025993 C149.228281,100.194446 153.926875,97.3477462 158.62547,94.4859366 C159.250584,94.0965036 160.021318,94.8440913 159.370372,95.2127427 C154.671777,98.0745523 149.973183,100.921252 145.312764,103.767951 L145.312764,103.767951 Z M104.897189,128.555375 C103.812308,129.200367 102.602505,127.9704 103.63657,127.328879 C111.582174,122.528835 119.546867,117.698571 127.492471,112.868265 C128.537268,112.220141 129.808449,113.424797 128.753091,114.079651 C120.807486,118.925067 112.842794,123.755373 104.897189,128.555375 Z M84.7466662,108.976771 C83.6914771,109.59514 82.4253435,108.408388 83.4860894,107.750275 C93.4753909,101.754082 103.350079,95.7426949 113.262986,89.7616122 C114.287889,89.1257627 115.611159,90.3100182 114.542693,90.9729981 C104.610698,96.9691908 94.7550983,102.980578 84.7466662,108.976771 Z M77.9470677,102.390016 C76.8855584,103.048679 75.669987,101.838055 76.6864909,101.178673 C95.106828,90.0826479 113.473803,78.8970207 131.923663,67.8511931 C132.977962,67.1970592 134.234042,68.4474687 133.184282,69.0625366 C114.73578,80.1075177 96.3666837,91.2945416 77.9470677,102.390016 L77.9470677,102.390016 Z M71.223864,95.8184144 C70.1635423,96.4397465 68.9155212,95.2268369 69.9632871,94.5767662 C88.3695415,83.5038506 106.733887,72.3621145 125.143195,61.2947435 C126.173782,60.655254 127.457519,61.867444 126.403772,62.5212394 C107.983647,73.5721036 89.6072126,84.7058826 71.223864,95.8184144 L71.223864,95.8184144 Z M64.4624841,89.2468124 C63.3832864,89.8791913 62.1641944,88.6489285 63.2018648,88.0051641 C81.6052347,76.8963992 100.016579,65.801517 118.419992,54.6928367 C119.497917,54.0611773 120.706447,55.3182319 119.680568,55.9193326 C101.265152,67.0123949 82.8542315,78.1147687 64.4624841,89.2468124 Z M57.7201923,82.6297533 C56.6816734,83.2740678 55.4053595,82.0573913 56.459573,81.4032574 C74.8086904,70.2437447 93.2583382,59.2323698 111.639481,48.1211923 C112.707565,47.4953738 113.915035,48.7418895 112.88097,49.3476882 C94.4925311,60.433005 76.0637529,71.4736266 57.7201923,82.6297533 Z" id="Shape"></path>
                </g>
            </g>
        </g>
    </g>
</svg>